<svg width="41" height="40" viewBox="0 0 41 40" fill="none" xmlns="http://www.w3.org/2000/svg">
<ellipse cx="20.2066" cy="20" rx="20.0459" ry="20" fill="#F16214"/>
<path d="M19.8332 28L15.1361 23.3137C14.2071 22.3868 13.5745 21.2059 13.3182 19.9203C13.0619 18.6347 13.1934 17.3022 13.6962 16.0912C14.199 14.8802 15.0504 13.8451 16.1427 13.1169C17.2351 12.3887 18.5194 12 19.8332 12C21.147 12 22.4313 12.3887 23.5236 13.1169C24.616 13.8451 25.4674 14.8802 25.9702 16.0912C26.4729 17.3022 26.6045 18.6347 26.3482 19.9203C26.0919 21.2059 25.4593 22.3868 24.5303 23.3137L19.8332 28ZM23.4866 22.2724C24.2091 21.5515 24.7011 20.6331 24.9004 19.6332C25.0998 18.6333 24.9974 17.5969 24.6064 16.655C24.2153 15.7131 23.5531 14.9081 22.7035 14.3418C21.8539 13.7754 20.855 13.4731 19.8332 13.4731C18.8114 13.4731 17.8125 13.7754 16.9629 14.3418C16.1133 14.9081 15.4511 15.7131 15.06 16.655C14.669 17.5969 14.5666 18.6333 14.7659 19.6332C14.9652 20.6331 15.4572 21.5515 16.1797 22.2724L19.8332 25.9175L23.4866 22.2724V22.2724ZM19.8332 20.1001C19.4417 20.1001 19.0662 19.945 18.7894 19.6688C18.5126 19.3926 18.357 19.018 18.357 18.6274C18.357 18.2368 18.5126 17.8622 18.7894 17.586C19.0662 17.3098 19.4417 17.1546 19.8332 17.1546C20.2247 17.1546 20.6001 17.3098 20.877 17.586C21.1538 17.8622 21.3093 18.2368 21.3093 18.6274C21.3093 19.018 21.1538 19.3926 20.877 19.6688C20.6001 19.945 20.2247 20.1001 19.8332 20.1001Z" fill="white"/>
</svg>
