<svg width="14" height="13" viewBox="0 0 14 13" fill="none" xmlns="http://www.w3.org/2000/svg">
<path d="M6.55278 4.55C6.03442 4.55 5.53729 4.75545 5.17076 5.12114C4.80422 5.48684 4.5983 5.98283 4.5983 6.5C4.5983 7.01717 4.80422 7.51316 5.17076 7.87886C5.53729 8.24455 6.03442 8.45 6.55278 8.45C7.07114 8.45 7.56827 8.24455 7.93481 7.87886C8.30134 7.51316 8.50726 7.01717 8.50726 6.5C8.50726 5.98283 8.30134 5.48684 7.93481 5.12114C7.56827 4.75545 7.07114 4.55 6.55278 4.55ZM6.55278 3.25C7.41671 3.25 8.24526 3.59241 8.85616 4.2019C9.46705 4.8114 9.81024 5.63805 9.81024 6.5C9.81024 7.36195 9.46705 8.1886 8.85616 8.7981C8.24526 9.40759 7.41671 9.75 6.55278 9.75C5.68885 9.75 4.8603 9.40759 4.24941 8.7981C3.63852 8.1886 3.29532 7.36195 3.29532 6.5C3.29532 5.63805 3.63852 4.8114 4.24941 4.2019C4.8603 3.59241 5.68885 3.25 6.55278 3.25V3.25ZM10.7875 3.0875C10.7875 3.30299 10.7017 3.50965 10.549 3.66202C10.3962 3.8144 10.1891 3.9 9.97312 3.9C9.75713 3.9 9.55 3.8144 9.39727 3.66202C9.24455 3.50965 9.15875 3.30299 9.15875 3.0875C9.15875 2.87201 9.24455 2.66535 9.39727 2.51298C9.55 2.3606 9.75713 2.275 9.97312 2.275C10.1891 2.275 10.3962 2.3606 10.549 2.51298C10.7017 2.66535 10.7875 2.87201 10.7875 3.0875V3.0875ZM6.55278 1.3C4.94099 1.3 4.67779 1.30455 3.92792 1.3377C3.41715 1.36175 3.07446 1.43 2.75654 1.5535C2.47379 1.6627 2.26987 1.79335 2.05292 2.01045C1.84901 2.20701 1.69223 2.44698 1.59427 2.71245C1.47049 3.03095 1.40208 3.3722 1.37863 3.88115C1.34475 4.59875 1.34084 4.84965 1.34084 6.5C1.34084 8.1081 1.3454 8.3707 1.37863 9.11885C1.40273 9.6278 1.47114 9.97035 1.59427 10.2869C1.70503 10.5696 1.83532 10.7731 2.05162 10.9889C2.27117 11.2073 2.47509 11.3379 2.75523 11.4458C3.07707 11.57 3.41975 11.6389 3.92792 11.6623C4.64717 11.6961 4.89864 11.7 6.55278 11.7C8.16457 11.7 8.42778 11.6954 9.17764 11.6623C9.68711 11.6382 10.0304 11.57 10.3484 11.4471C10.6305 11.3373 10.8357 11.2066 11.052 10.9908C11.2715 10.7718 11.4025 10.5683 11.5106 10.2888C11.6344 9.9684 11.7035 9.62585 11.7269 9.11885C11.7608 8.40125 11.7647 8.15035 11.7647 6.5C11.7647 4.8919 11.7602 4.6293 11.7269 3.88115C11.7028 3.37285 11.6344 3.02965 11.5106 2.71245C11.4125 2.44725 11.256 2.20737 11.0526 2.01045C10.8557 1.8069 10.6152 1.65046 10.349 1.55285C10.0298 1.42935 9.68711 1.3611 9.17764 1.3377C8.4584 1.3039 8.20692 1.3 6.55278 1.3ZM6.55278 0C8.32289 0 8.54374 0.00649996 9.23823 0.039C9.93207 0.0715 10.4044 0.18005 10.8201 0.34125C11.25 0.50635 11.6123 0.72995 11.9745 1.0907C12.3058 1.41563 12.5621 1.80868 12.7257 2.2425C12.8866 2.65655 12.996 3.12845 13.0286 3.8207C13.0592 4.5136 13.0677 4.73395 13.0677 6.5C13.0677 8.26605 13.0612 8.4864 13.0286 9.1793C12.996 9.87155 12.8866 10.3428 12.7257 10.7575C12.5626 11.1916 12.3062 11.5847 11.9745 11.9093C11.6487 12.2397 11.2548 12.4954 10.8201 12.6587C10.4051 12.8193 9.93207 12.9285 9.23823 12.961C8.54374 12.9915 8.32289 13 6.55278 13C4.78268 13 4.56182 12.9935 3.86733 12.961C3.17349 12.9285 2.70116 12.8193 2.28551 12.6587C1.85052 12.4959 1.4565 12.2401 1.13106 11.9093C0.799717 11.5844 0.54337 11.1914 0.379891 10.7575C0.218321 10.3434 0.109521 9.87155 0.0769466 9.1793C0.0463264 8.4864 0.0378571 8.26605 0.0378571 6.5C0.0378571 4.73395 0.0443719 4.5136 0.0769466 3.8207C0.109521 3.1278 0.218321 2.6572 0.379891 2.2425C0.542918 1.80842 0.799324 1.41526 1.13106 1.0907C1.45659 0.76 1.85059 0.504224 2.28551 0.34125C2.70116 0.18005 3.17284 0.0715 3.86733 0.039C4.56182 0.00844996 4.78268 0 6.55278 0Z" fill="#F16214"/>
</svg>
