<svg width="15" height="13" viewBox="0 0 15 13" fill="none" xmlns="http://www.w3.org/2000/svg">
<path d="M3.22025 1.44509C3.22006 1.82816 3.06735 2.19546 2.79572 2.46619C2.5241 2.73693 2.1558 2.88892 1.77185 2.88873C1.3879 2.88854 1.01975 2.73618 0.748394 2.46517C0.477037 2.19417 0.324698 1.82671 0.32489 1.44364C0.325082 1.06057 0.477789 0.693269 0.749418 0.422534C1.02105 0.151798 1.38935 -0.000191354 1.77329 1.80807e-07C2.15724 0.000191715 2.52539 0.152549 2.79675 0.423555C3.0681 0.694562 3.22044 1.06202 3.22025 1.44509V1.44509ZM3.26368 3.95828H0.368321V13H3.26368V3.95828ZM7.83835 3.95828H4.95747V13H7.8094V8.25526C7.8094 5.61208 11.2621 5.36654 11.2621 8.25526V13H14.1213V7.2731C14.1213 2.81723 9.01097 2.98333 7.8094 5.17155L7.83835 3.95828V3.95828Z" fill="#F16214"/>
</svg>
