<svg width="14" height="16" viewBox="0 0 14 16" fill="none" xmlns="http://www.w3.org/2000/svg">
<path d="M6.83319 16L2.13611 11.3137C1.20713 10.3868 0.574486 9.20592 0.318185 7.92033C0.0618842 6.63474 0.193435 5.30219 0.696203 4.0912C1.19897 2.8802 2.05037 1.84514 3.14275 1.11692C4.23512 0.388689 5.5194 0 6.83319 0C8.14697 0 9.43126 0.388689 10.5236 1.11692C11.616 1.84514 12.4674 2.8802 12.9702 4.0912C13.4729 5.30219 13.6045 6.63474 13.3482 7.92033C13.0919 9.20592 12.4593 10.3868 11.5303 11.3137L6.83319 16ZM10.4866 10.2724C11.2091 9.55153 11.7011 8.63305 11.9004 7.63316C12.0998 6.63327 11.9974 5.59687 11.6064 4.65501C11.2153 3.71315 10.5531 2.90813 9.70348 2.34175C8.85387 1.77538 7.855 1.47307 6.83319 1.47307C5.81138 1.47307 4.81251 1.77538 3.96289 2.34175C3.11328 2.90813 2.45108 3.71315 2.06002 4.65501C1.66897 5.59687 1.56662 6.63327 1.76593 7.63316C1.96524 8.63305 2.45725 9.55153 3.17974 10.2724L6.83319 13.9175L10.4866 10.2724ZM6.83319 8.10012C6.44169 8.10012 6.06623 7.94495 5.7894 7.66876C5.51257 7.39256 5.35705 7.01796 5.35705 6.62736C5.35705 6.23676 5.51257 5.86216 5.7894 5.58596C6.06623 5.30977 6.44169 5.1546 6.83319 5.1546C7.22469 5.1546 7.60015 5.30977 7.87698 5.58596C8.15381 5.86216 8.30933 6.23676 8.30933 6.62736C8.30933 7.01796 8.15381 7.39256 7.87698 7.66876C7.60015 7.94495 7.22469 8.10012 6.83319 8.10012Z" fill="white"/>
</svg>
