<svg width="41" height="40" viewBox="0 0 41 40" fill="none" xmlns="http://www.w3.org/2000/svg">
<ellipse cx="20.125" cy="20" rx="20.0459" ry="20" fill="#F16214"/>
<path d="M17.7783 18.8284C18.6143 20.2938 19.8306 21.5073 21.2993 22.3413L22.0869 21.2409C22.2135 21.0639 22.4008 20.9394 22.6133 20.891C22.8257 20.8425 23.0486 20.8734 23.2397 20.9778C24.4998 21.6648 25.8913 22.078 27.3229 22.1902C27.5463 22.2079 27.7548 22.3089 27.9069 22.4732C28.059 22.6374 28.1435 22.8528 28.1434 23.0764V27.0427C28.1435 27.2628 28.0617 27.475 27.9139 27.6384C27.7661 27.8018 27.5628 27.9047 27.3434 27.9271C26.8712 27.976 26.3954 28 25.9161 28C18.2897 28 12.1067 21.8311 12.1067 14.2222C12.1067 13.744 12.1307 13.2693 12.1797 12.7982C12.2022 12.5793 12.3054 12.3765 12.4691 12.229C12.6329 12.0816 12.8456 12 13.0662 12H17.0415C17.2657 12 17.4816 12.0842 17.6462 12.236C17.8108 12.3877 17.9121 12.5958 17.9298 12.8187C18.0423 14.2469 18.4564 15.6353 19.145 16.8924C19.2497 17.0832 19.2806 17.3055 19.232 17.5175C19.1835 17.7295 19.0587 17.9163 18.8813 18.0427L17.7783 18.8284V18.8284ZM15.5314 18.2444L17.2242 17.0382C16.7438 16.0036 16.4146 14.9056 16.2468 13.7778H13.8975C13.8921 13.9253 13.8894 14.0738 13.8894 14.2222C13.8885 20.8498 19.2733 26.2222 25.9161 26.2222C26.0649 26.2222 26.2137 26.2196 26.3616 26.2133V23.8693C25.2311 23.7019 24.1306 23.3735 23.0936 22.8942L21.8846 24.5831C21.3979 24.3944 20.9251 24.1716 20.4698 23.9164L20.4182 23.8871C18.6707 22.8949 17.2235 21.451 16.229 19.7076L16.1996 19.656C15.9438 19.2018 15.7206 18.7301 15.5314 18.2444V18.2444Z" fill="white"/>
</svg>
