<svg width="17" height="16" viewBox="0 0 17 16" fill="none" xmlns="http://www.w3.org/2000/svg">
<path d="M5.77835 6.82844C6.61434 8.29376 7.83063 9.50726 9.2993 10.3413L10.0869 9.24089C10.2135 9.06394 10.4008 8.93945 10.6133 8.89096C10.8257 8.84248 11.0486 8.87336 11.2397 8.97778C12.4998 9.66482 13.8913 10.078 15.3229 10.1902C15.5463 10.2079 15.7548 10.3089 15.9069 10.4732C16.059 10.6374 16.1435 10.8528 16.1434 11.0764V15.0427C16.1435 15.2628 16.0617 15.475 15.9139 15.6384C15.7661 15.8018 15.5628 15.9047 15.3434 15.9271C14.8712 15.976 14.3954 16 13.9161 16C6.28974 16 0.106689 9.83111 0.106689 2.22222C0.106689 1.744 0.130745 1.26933 0.179746 0.798222C0.202246 0.579286 0.305353 0.376463 0.469111 0.229008C0.632868 0.0815531 0.845632 -4.74291e-05 1.06622 2.0682e-08H5.04155C5.26567 -2.80165e-05 5.48158 0.0842236 5.64621 0.235956C5.81084 0.387689 5.9121 0.595754 5.92981 0.818667C6.04226 2.24693 6.45641 3.63527 7.14504 4.89244C7.24969 5.08317 7.28065 5.30555 7.23205 5.51751C7.18345 5.72947 7.05867 5.9163 6.88132 6.04267L5.77835 6.82844ZM3.53142 6.24444L5.22419 5.03822C4.74379 4.00364 4.41465 2.90564 4.24684 1.77778H1.89746C1.89211 1.92533 1.88944 2.07378 1.88944 2.22222C1.88855 8.84978 7.27333 14.2222 13.9161 14.2222C14.0649 14.2222 14.2137 14.2196 14.3616 14.2133V11.8693C13.2311 11.7019 12.1306 11.3735 11.0936 10.8942L9.88465 12.5831C9.3979 12.3944 8.92512 12.1716 8.46985 11.9164L8.41817 11.8871C6.67069 10.8949 5.22355 9.45104 4.22902 7.70756L4.19962 7.656C3.94384 7.20177 3.72055 6.73008 3.53142 6.24444Z" fill="white"/>
</svg>
