<svg width="17" height="16" viewBox="0 0 17 16" fill="none" xmlns="http://www.w3.org/2000/svg">
<path d="M8.28586 16C3.85731 16 0.267487 12.4184 0.267487 8C0.267487 3.5816 3.85731 0 8.28586 0C12.7144 0 16.3042 3.5816 16.3042 8C16.3042 12.4184 12.7144 16 8.28586 16ZM8.28586 14.4C9.98714 14.4 11.6187 13.7257 12.8217 12.5255C14.0247 11.3253 14.7006 9.69739 14.7006 8C14.7006 6.30261 14.0247 4.67475 12.8217 3.47452C11.6187 2.27428 9.98714 1.6 8.28586 1.6C6.58457 1.6 4.95297 2.27428 3.74998 3.47452C2.54699 4.67475 1.87116 6.30261 1.87116 8C1.87116 9.69739 2.54699 11.3253 3.74998 12.5255C4.95297 13.7257 6.58457 14.4 8.28586 14.4ZM9.08769 8H12.295V9.6H7.48402V4H9.08769V8Z" fill="white"/>
</svg>
