<svg width="41" height="40" viewBox="0 0 41 40" fill="none" xmlns="http://www.w3.org/2000/svg">
<ellipse cx="20.2859" cy="20" rx="20.0459" ry="20" fill="#F16214"/>
<path d="M20.2859 28C15.8573 28 12.2675 24.4184 12.2675 20C12.2675 15.5816 15.8573 12 20.2859 12C24.7144 12 28.3042 15.5816 28.3042 20C28.3042 24.4184 24.7144 28 20.2859 28ZM20.2859 26.4C21.9871 26.4 23.6187 25.7257 24.8217 24.5255C26.0247 23.3253 26.7005 21.6974 26.7005 20C26.7005 18.3026 26.0247 16.6747 24.8217 15.4745C23.6187 14.2743 21.9871 13.6 20.2859 13.6C18.5846 13.6 16.953 14.2743 15.75 15.4745C14.547 16.6747 13.8712 18.3026 13.8712 20C13.8712 21.6974 14.547 23.3253 15.75 24.5255C16.953 25.7257 18.5846 26.4 20.2859 26.4V26.4ZM21.0877 20H24.295V21.6H19.484V16H21.0877V20Z" fill="white"/>
</svg>
