<svg width="17" height="13" viewBox="0 0 17 13" fill="none" xmlns="http://www.w3.org/2000/svg">
<path d="M16.2028 1.54324C15.6026 1.80812 14.9661 1.98209 14.3144 2.05937C15.0013 1.64947 15.5154 1.00438 15.7609 0.244297C15.1163 0.627078 14.4095 0.895338 13.6728 1.04045C13.178 0.512227 12.5221 0.161908 11.8072 0.0439529C11.0922 -0.0740019 10.3582 0.047017 9.7193 0.388195C9.08039 0.729374 8.57235 1.2716 8.27417 1.93057C7.97599 2.58954 7.90438 3.32833 8.07046 4.0321C6.76311 3.96673 5.48416 3.62777 4.31664 3.03724C3.14911 2.4467 2.11912 1.6178 1.29352 0.604331C1.00128 1.10512 0.847714 1.67441 0.848536 2.2539C0.848536 3.39126 1.42874 4.39606 2.31085 4.98435C1.78882 4.96795 1.27829 4.8273 0.821805 4.57411V4.6149C0.821963 5.37238 1.08468 6.1065 1.56542 6.69279C2.04616 7.27907 2.71532 7.68144 3.45947 7.83167C2.97487 7.96269 2.46675 7.98201 1.97357 7.88815C2.18338 8.54016 2.59231 9.11038 3.1431 9.51897C3.69389 9.92757 4.35897 10.1541 5.04521 10.1668C4.36317 10.7012 3.58225 11.0963 2.74709 11.3294C1.91192 11.5625 1.03889 11.6291 0.177917 11.5253C1.68087 12.4897 3.43045 13.0017 5.21738 13C11.2655 13 14.573 8.0011 14.573 3.66579C14.573 3.5246 14.5691 3.38184 14.5628 3.24222C15.2066 2.778 15.7622 2.20293 16.2036 1.54403L16.2028 1.54324Z" fill="#F16214"/>
</svg>
