<svg aria-hidden="true" style="position: absolute; width: 0; height: 0; overflow: hidden;" version="1.1" xmlns="http://www.w3.org/2000/svg" xmlns:xlink="http://www.w3.org/1999/xlink">
<defs>
<symbol id="icon-apple" viewBox="0 0 26 32">
<path fill="#37474f" style="fill: var(--color1, #37474f)" d="M25.837 22.232c-0.106-0.163-0.278-0.273-0.471-0.299-2.539-0.332-4.328-2.659-3.996-5.197 0.234-1.793 1.49-3.287 3.217-3.825 0.351-0.112 0.544-0.488 0.431-0.838-0.018-0.055-0.042-0.107-0.073-0.155-1.165-2.103-3.237-3.549-5.612-3.917-1.197 0.057-2.377 0.31-3.492 0.748-0.801 0.322-1.647 0.52-2.508 0.585-0.861-0.065-1.707-0.263-2.508-0.585-1.115-0.438-2.295-0.691-3.492-0.748-2.489 0-7.333 3.529-7.333 10 0 6.149 4.485 14 8 14 1.341 0.012 2.666-0.293 3.867-0.891 0.452-0.249 0.952-0.4 1.467-0.443 0.515 0.042 1.014 0.193 1.467 0.443 1.201 0.598 2.526 0.903 3.867 0.891 2.787 0 5.932-4.784 7.249-9.217 0.055-0.186 0.026-0.387-0.079-0.551z"></path>
<path fill="#37474f" style="fill: var(--color1, #37474f)" d="M12.666 8c4.048-0.004 7.329-3.285 7.333-7.333 0-0.368-0.298-0.667-0.667-0.667-4.048 0.004-7.329 3.285-7.333 7.333-0 0.368 0.298 0.667 0.667 0.667z"></path>
</symbol>
<symbol id="icon-arrow" viewBox="0 0 67 32">
<path fill="#f16214" style="fill: var(--color1, #f16214)" d="M50.909 29.137c-0.383 0.002-0.762-0.071-1.117-0.216s-0.677-0.358-0.949-0.628c-0.273-0.27-0.489-0.592-0.637-0.947s-0.224-0.735-0.224-1.119c0-0.384 0.076-0.764 0.224-1.119s0.364-0.676 0.637-0.947l9.629-9.571-9.251-9.629c-0.542-0.545-0.846-1.282-0.846-2.051s0.304-1.506 0.846-2.051c0.271-0.273 0.592-0.489 0.947-0.637s0.735-0.224 1.119-0.224 0.764 0.076 1.119 0.224c0.354 0.148 0.676 0.364 0.947 0.637l11.229 11.636c0.533 0.544 0.832 1.275 0.832 2.036s-0.299 1.493-0.832 2.036l-11.636 11.636c-0.261 0.282-0.575 0.509-0.925 0.669s-0.727 0.249-1.111 0.262v0z"></path>
<path fill="none" stroke="#f16214" style="stroke: var(--color1, #f16214)" stroke-linejoin="miter" stroke-linecap="round" stroke-miterlimit="4" stroke-width="5.8182" d="M58.182 14.591h-55.273"></path>
</symbol>
<symbol id="icon-arrow-rev-2" viewBox="0 0 67 32">
<path fill="#f16214" style="fill: var(--color1, #f16214)" d="M16 2.863c0.383-0.002 0.762 0.071 1.117 0.216s0.677 0.358 0.949 0.628c0.273 0.27 0.489 0.592 0.637 0.947s0.224 0.735 0.224 1.119c0 0.384-0.076 0.764-0.224 1.119s-0.364 0.676-0.637 0.947l-9.629 9.571 9.251 9.629c0.542 0.545 0.846 1.282 0.846 2.051s-0.304 1.506-0.846 2.051c-0.27 0.273-0.592 0.489-0.947 0.637s-0.735 0.224-1.119 0.224c-0.384 0-0.764-0.076-1.119-0.224s-0.676-0.364-0.947-0.637l-11.229-11.636c-0.533-0.544-0.832-1.275-0.832-2.036s0.299-1.493 0.832-2.036l11.636-11.636c0.261-0.282 0.575-0.509 0.925-0.669s0.727-0.249 1.111-0.262z"></path>
<path fill="none" stroke="#f16214" style="stroke: var(--color1, #f16214)" stroke-linejoin="miter" stroke-linecap="round" stroke-miterlimit="4" stroke-width="5.8182" d="M8.727 17.409h55.273"></path>
</symbol>
<symbol id="icon-arrow-rev" viewBox="0 0 67 32">
<path fill="#fff" style="fill: var(--color3, #fff)" d="M16 2.863c0.383-0.002 0.762 0.071 1.117 0.216s0.677 0.358 0.949 0.628c0.273 0.27 0.489 0.592 0.637 0.947s0.224 0.735 0.224 1.119c0 0.384-0.076 0.764-0.224 1.119s-0.364 0.676-0.637 0.947l-9.629 9.571 9.251 9.629c0.542 0.545 0.846 1.282 0.846 2.051s-0.304 1.506-0.846 2.051c-0.27 0.273-0.592 0.489-0.947 0.637s-0.735 0.224-1.119 0.224c-0.384 0-0.764-0.076-1.119-0.224s-0.676-0.364-0.947-0.637l-11.229-11.636c-0.533-0.544-0.832-1.275-0.832-2.036s0.299-1.493 0.832-2.036l11.636-11.636c0.261-0.282 0.575-0.509 0.925-0.669s0.727-0.249 1.111-0.262z"></path>
<path fill="none" stroke="#fff" style="stroke: var(--color3, #fff)" stroke-linejoin="miter" stroke-linecap="round" stroke-miterlimit="4" stroke-width="5.8182" d="M8.727 17.409h55.273"></path>
</symbol>
<symbol id="icon-btn" viewBox="0 0 21 32">
<path d="M12.966 16l-12.474-12.445 3.563-3.555 16.037 16-16.037 16-3.563-3.555 12.474-12.445z"></path>
</symbol>
<symbol id="icon-delivery" viewBox="0 0 45 32">
<path d="M15.924 25.99c-0.238 1.668-1.069 3.194-2.342 4.298s-2.901 1.712-4.586 1.712-3.313-0.608-4.586-1.712c-1.273-1.104-2.104-2.63-2.342-4.298h-2.069v-23.991c0-0.53 0.211-1.039 0.586-1.414s0.883-0.586 1.414-0.586h27.989c0.53 0 1.039 0.211 1.414 0.586s0.586 0.883 0.586 1.414v3.998h5.998l5.998 8.109v11.883h-4.068c-0.238 1.668-1.069 3.194-2.342 4.298s-2.901 1.712-4.586 1.712-3.313-0.608-4.586-1.712c-1.273-1.104-2.104-2.63-2.342-4.298h-10.136zM27.989 3.998h-23.991v16.094c0.789-0.805 1.761-1.408 2.832-1.757s2.212-0.434 3.324-0.247c1.112 0.187 2.162 0.639 3.061 1.319s1.621 1.567 2.104 2.585h11.344c0.336-0.706 0.786-1.347 1.325-1.899v-16.094zM31.988 15.994h7.997v-0.57l-4.014-5.428h-3.982v5.998zM32.987 27.989c0.796 0 1.559-0.316 2.121-0.879s0.879-1.326 0.879-2.121c0-0.796-0.316-1.559-0.879-2.121s-1.326-0.879-2.121-0.879c-0.796 0-1.559 0.316-2.121 0.879s-0.879 1.326-0.879 2.121c0 0.796 0.316 1.559 0.879 2.121s1.326 0.879 2.121 0.879zM11.995 24.99c0-0.394-0.078-0.784-0.228-1.148s-0.372-0.695-0.65-0.973c-0.278-0.279-0.609-0.499-0.973-0.65s-0.754-0.228-1.148-0.228c-0.394 0-0.784 0.078-1.148 0.228s-0.694 0.372-0.973 0.65c-0.278 0.278-0.499 0.609-0.65 0.973s-0.228 0.754-0.228 1.148c0 0.795 0.316 1.558 0.878 2.121s1.325 0.878 2.12 0.878 1.558-0.316 2.121-0.878c0.562-0.562 0.878-1.325 0.878-2.121z"></path>
</symbol>
<symbol id="icon-facebook" viewBox="0 0 20 32">
<path d="M13.441 18.4h4.009l1.604-6.4h-5.613v-3.2c0-1.648 0-3.2 3.207-3.2h2.405v-5.376c-0.523-0.069-2.497-0.224-4.582-0.224-4.354 0-7.446 2.651-7.446 7.52v4.48h-4.811v6.4h4.811v13.6h6.415v-13.6z"></path>
</symbol>
<symbol id="icon-google" viewBox="0 0 30 32">
<path fill="#2196f3" style="fill: var(--color4, #2196f3)" d="M17.261 16.003l-16.070 15.474c-0.753-0.514-1.199-1.37-1.191-2.281v-26.386c-0.008-0.911 0.439-1.767 1.191-2.281l16.070 15.474z"></path>
<path fill="#4caf50" style="fill: var(--color5, #4caf50)" d="M22.884 10.598l-5.623 5.405-16.070-15.474c0.061-0.047 0.124-0.091 0.189-0.131 0.849-0.515 1.91-0.531 2.775-0.044l18.729 10.243z"></path>
<path fill="#ffc107" style="fill: var(--color6, #ffc107)" d="M29.698 16.003c0.010 1.029-0.549 1.979-1.453 2.47l-5.361 2.935-5.623-5.405 5.623-5.405 5.361 2.935c0.904 0.491 1.463 1.441 1.453 2.47z"></path>
<path fill="#f44336" style="fill: var(--color7, #f44336)" d="M22.884 21.408l-18.729 10.243c-0.867 0.48-1.924 0.464-2.775-0.044-0.065-0.040-0.128-0.084-0.189-0.131l16.070-15.474 5.623 5.405z"></path>
</symbol>
<symbol id="icon-healthy" viewBox="0 0 29 32">
<path d="M28.8 0v32h-3.2v-12.8h-4.8v-11.2c0-2.122 0.843-4.157 2.343-5.657s3.535-2.343 5.657-2.343zM9.6 19.040v12.96h-3.2v-12.96c-1.807-0.369-3.43-1.351-4.597-2.78s-1.803-3.216-1.803-5.060v-9.6h3.2v11.2h3.2v-11.2h3.2v11.2h3.2v-11.2h3.2v9.6c-0 1.844-0.637 3.631-1.803 5.060s-2.79 2.411-4.597 2.78z"></path>
</symbol>
<symbol id="icon-insta" viewBox="0 0 34 32">
<path d="M16.13 11.2c-1.276 0-2.5 0.506-3.402 1.406s-1.409 2.121-1.409 3.394c0 1.273 0.507 2.494 1.409 3.394s2.126 1.406 3.402 1.406c1.276 0 2.5-0.506 3.402-1.406s1.409-2.121 1.409-3.394c0-1.273-0.507-2.494-1.409-3.394s-2.126-1.406-3.402-1.406zM16.13 8c2.127 0 4.166 0.843 5.67 2.343s2.349 3.535 2.349 5.657c0 2.122-0.845 4.157-2.349 5.657s-3.543 2.343-5.67 2.343c-2.127 0-4.166-0.843-5.67-2.343s-2.349-3.535-2.349-5.657c0-2.122 0.845-4.157 2.349-5.657s3.543-2.343 5.67-2.343v0zM26.554 7.6c0 0.53-0.211 1.039-0.587 1.414s-0.886 0.586-1.418 0.586-1.042-0.211-1.417-0.586c-0.376-0.375-0.587-0.884-0.587-1.414s0.211-1.039 0.587-1.414c0.376-0.375 0.886-0.586 1.417-0.586s1.041 0.211 1.418 0.586c0.376 0.375 0.587 0.884 0.587 1.414v0zM16.13 3.2c-3.967 0-4.615 0.011-6.461 0.093-1.257 0.059-2.101 0.227-2.883 0.531-0.696 0.269-1.198 0.59-1.732 1.125-0.502 0.484-0.888 1.075-1.129 1.728-0.305 0.784-0.473 1.624-0.531 2.877-0.083 1.766-0.093 2.384-0.093 6.446 0 3.958 0.011 4.605 0.093 6.446 0.059 1.253 0.228 2.096 0.531 2.875 0.273 0.696 0.593 1.197 1.126 1.728 0.54 0.538 1.042 0.859 1.732 1.125 0.792 0.306 1.636 0.475 2.887 0.533 1.77 0.083 2.389 0.093 6.461 0.093 3.967 0 4.615-0.011 6.461-0.093 1.254-0.059 2.099-0.227 2.882-0.53 0.694-0.27 1.2-0.592 1.732-1.123 0.54-0.539 0.863-1.040 1.129-1.728 0.305-0.789 0.475-1.632 0.532-2.88 0.083-1.766 0.093-2.384 0.093-6.446 0-3.958-0.011-4.605-0.093-6.446-0.059-1.251-0.228-2.096-0.532-2.877-0.241-0.653-0.627-1.243-1.127-1.728-0.485-0.501-1.077-0.886-1.732-1.126-0.786-0.304-1.629-0.472-2.883-0.53-1.77-0.083-2.389-0.093-6.461-0.093zM16.13 0c4.357 0 4.901 0.016 6.61 0.096 1.708 0.080 2.871 0.347 3.894 0.744 1.058 0.406 1.95 0.957 2.842 1.845 0.816 0.8 1.446 1.767 1.849 2.835 0.396 1.019 0.665 2.181 0.746 3.885 0.075 1.706 0.096 2.248 0.096 6.595s-0.016 4.89-0.096 6.595c-0.080 1.704-0.35 2.864-0.746 3.885-0.401 1.069-1.033 2.036-1.849 2.835-0.802 0.813-1.772 1.443-2.842 1.845-1.022 0.395-2.186 0.664-3.894 0.744-1.709 0.075-2.253 0.096-6.61 0.096s-4.901-0.016-6.61-0.096c-1.708-0.080-2.871-0.349-3.894-0.744-1.071-0.401-2.041-1.030-2.842-1.845-0.816-0.8-1.447-1.767-1.849-2.835-0.398-1.019-0.666-2.181-0.746-3.885-0.075-1.706-0.096-2.248-0.096-6.595s0.016-4.89 0.096-6.595c0.080-1.706 0.348-2.864 0.746-3.885 0.401-1.069 1.032-2.036 1.849-2.835 0.801-0.814 1.771-1.444 2.842-1.845 1.023-0.397 2.184-0.664 3.894-0.744 1.71-0.075 2.253-0.096 6.61-0.096z"></path>
</symbol>
<symbol id="icon-linkedin" viewBox="0 0 37 32">
<path d="M7.927 3.557c-0 0.943-0.376 1.847-1.045 2.513s-1.575 1.041-2.52 1.040c-0.945-0-1.851-0.375-2.519-1.043s-1.043-1.572-1.042-2.515c0-0.943 0.376-1.847 1.045-2.514s1.575-1.041 2.52-1.040c0.945 0 1.851 0.376 2.519 1.043s1.043 1.572 1.042 2.515v0zM8.034 9.743h-7.127v22.257h7.127v-22.257zM19.294 9.743h-7.091v22.257h7.020v-11.679c0-6.506 8.499-7.111 8.499 0v11.679h7.038v-14.097c0-10.968-12.579-10.559-15.537-5.173l0.071-2.986z"></path>
</symbol>
<symbol id="icon-map" viewBox="0 0 28 32">
<path d="M13.666 32l-9.394-9.373c-1.858-1.854-3.123-4.216-3.636-6.787s-0.249-5.236 0.756-7.658c1.006-2.422 2.708-4.492 4.893-5.949s4.753-2.234 7.381-2.234c2.628 0 5.196 0.777 7.381 2.234s3.888 3.527 4.893 5.949c1.005 2.422 1.269 5.087 0.756 7.658s-1.778 4.933-3.636 6.787l-9.394 9.373zM20.973 20.545c1.445-1.442 2.429-3.279 2.828-5.278s0.194-4.073-0.588-5.956c-0.782-1.884-2.107-3.494-3.806-4.627s-3.697-1.737-5.741-1.737c-2.044 0-4.041 0.605-5.741 1.737s-3.024 2.743-3.806 4.627c-0.782 1.884-0.987 3.957-0.588 5.956s1.383 3.837 2.828 5.278l7.307 7.29 7.307-7.29zM13.666 16.2c-0.783 0-1.534-0.31-2.088-0.863s-0.865-1.302-0.865-2.083c0-0.781 0.311-1.53 0.865-2.083s1.305-0.863 2.088-0.863c0.783 0 1.534 0.31 2.088 0.863s0.865 1.302 0.865 2.083c0 0.781-0.311 1.53-0.865 2.083s-1.305 0.863-2.088 0.863z"></path>
</symbol>
<symbol id="icon-quality" viewBox="0 0 33 32">
<path d="M2.113 0.133l12.109 12.109-5.098 5.1-7.013-7.013c-1.352-1.352-2.111-3.186-2.111-5.098s0.759-3.746 2.111-5.098h0.002zM20.224 15.164l-1.54 1.54 12.747 12.747-2.549 2.549-12.747-12.745-12.747 12.745-2.549-2.549 16.836-16.836c-1.060-2.627 0.036-6.409 2.92-9.297 3.521-3.519 8.372-4.375 10.836-1.911s1.608 7.316-1.911 10.835c-2.888 2.888-6.67 3.984-9.297 2.922z"></path>
</symbol>
<symbol id="icon-tel" viewBox="0 0 34 32">
<path d="M11.557 13.657c1.672 2.931 4.105 5.358 7.042 7.026l1.575-2.201c0.253-0.354 0.628-0.603 1.053-0.7s0.871-0.035 1.253 0.174c2.52 1.374 5.303 2.2 8.166 2.425 0.447 0.035 0.864 0.237 1.168 0.566s0.473 0.759 0.473 1.206v7.933c0 0.44-0.163 0.865-0.459 1.191s-0.702 0.533-1.141 0.577c-0.944 0.098-1.896 0.146-2.855 0.146-15.253 0-27.619-12.338-27.619-27.556 0-0.956 0.048-1.906 0.146-2.848 0.045-0.438 0.251-0.844 0.579-1.138s0.753-0.458 1.194-0.458h7.951c0.448-0 0.88 0.168 1.209 0.472s0.532 0.72 0.567 1.165c0.225 2.857 1.053 5.633 2.43 8.148 0.209 0.381 0.271 0.826 0.174 1.25s-0.347 0.798-0.701 1.050l-2.206 1.572zM7.063 12.489l3.386-2.412c-0.961-2.069-1.619-4.265-1.955-6.521h-4.699c-0.011 0.295-0.016 0.592-0.016 0.889-0.002 13.255 10.768 24 24.053 24 0.298 0 0.595-0.005 0.891-0.018v-4.688c-2.261-0.335-4.462-0.992-6.536-1.95l-2.418 3.378c-0.974-0.377-1.919-0.823-2.83-1.333l-0.103-0.059c-3.495-1.984-6.389-4.872-8.378-8.359l-0.059-0.103c-0.512-0.908-0.958-1.852-1.336-2.823z"></path>
</symbol>
<symbol id="icon-time" viewBox="0 0 34 32">
<path d="M16.572 32c-8.857 0-16.037-7.163-16.037-16s7.18-16 16.037-16c8.857 0 16.037 7.163 16.037 16s-7.18 16-16.037 16zM16.572 28.8c3.403 0 6.666-1.349 9.072-3.749s3.758-5.656 3.758-9.051c0-3.395-1.352-6.651-3.758-9.051s-5.669-3.749-9.072-3.749c-3.403 0-6.666 1.349-9.072 3.749s-3.758 5.656-3.758 9.051c0 3.395 1.352 6.651 3.758 9.051s5.669 3.749 9.072 3.749zM18.175 16h6.415v3.2h-9.622v-11.2h3.207v8z"></path>
</symbol>
<symbol id="icon-twitter" viewBox="0 0 42 32">
<path d="M39.884 3.799c-1.477 0.652-3.044 1.080-4.648 1.27 1.691-1.009 2.956-2.597 3.561-4.468-1.587 0.942-3.327 1.603-5.14 1.96-1.218-1.3-2.832-2.163-4.592-2.453s-3.567 0.008-5.139 0.847-2.823 2.175-3.557 3.797c-0.734 1.622-0.91 3.441-0.501 5.173-3.218-0.161-6.366-0.995-9.24-2.449s-5.409-3.494-7.442-5.989c-0.719 1.233-1.097 2.634-1.095 4.060 0 2.8 1.428 5.273 3.6 6.721-1.285-0.040-2.542-0.387-3.665-1.010v0.1c0 1.865 0.647 3.672 1.83 5.115s2.831 2.434 4.662 2.803c-1.193 0.323-2.444 0.37-3.658 0.139 0.516 1.605 1.523 3.009 2.879 4.014s2.993 1.563 4.682 1.595c-1.679 1.315-3.601 2.288-5.657 2.862s-4.205 0.738-6.324 0.482c3.7 2.374 8.006 3.634 12.405 3.63 14.888 0 23.029-12.305 23.029-22.977 0-0.348-0.010-0.699-0.025-1.043 1.585-1.143 2.952-2.558 4.039-4.18l-0.002-0.002z"></path>
</symbol>
</defs>
</svg>
